<svg width="42" height="34" viewBox="0 0 42 34" fill="none" xmlns="http://www.w3.org/2000/svg">
<path d="M6.38348 9.32926L7.25684 7.76452L5.26355 7.90391C2.82506 8.07442 0.875488 10.1642 0.875488 12.6091V20.6095C0.875488 23.6883 3.39912 26.0416 6.47038 25.8268L31.4095 24.0829C33.8482 23.9124 35.7975 21.822 35.7975 19.3773V10.3773C35.7975 7.85084 33.7205 5.914 31.2002 6.09024L14.8088 7.23644L14.3209 8.0858C14.9683 8.18055 15.5847 8.37291 16.1568 8.64584L31.3048 7.58658C32.9577 7.47101 34.2975 8.72046 34.2975 10.3773V19.3773C34.2975 21.0342 32.9577 22.471 31.3048 22.5866L6.36574 24.3305C4.16199 24.4846 2.37549 22.8187 2.37549 20.6095V12.6091C2.37549 10.9523 3.71536 9.51583 5.36818 9.40025L6.38348 9.32926Z" fill="#E64F96"/>
<path fill-rule="evenodd" clip-rule="evenodd" d="M13.0476 9.53063C15.0735 9.38897 16.8896 10.5074 17.8519 12.1907C18.0146 12.4647 18.1519 12.7479 18.2639 13.04C19.1507 12.9689 19.6254 12.4775 19.6254 11.6009V10.9609L22.0195 10.7935V12.7775L24.0625 12.6347V14.7147L22.0195 14.8575V18.2015C22.0195 18.7866 22.2175 19.1756 22.6739 19.3398C23.1228 19.5012 23.5942 19.4184 24.0625 19.3387V21.3707C23.7433 21.4357 23.3071 21.5195 22.9453 21.5448C21.8918 21.6185 21.0725 21.3931 20.4873 20.8687C19.9127 20.3329 19.6254 19.5529 19.6254 18.5289V15.0249L18.634 15.0943C18.634 15.0975 18.634 15.1008 18.634 15.104C18.634 18.6898 15.8078 22.0776 12.1259 22.3351C8.60188 22.5815 5.4502 19.8845 5.4502 16.3059C5.4502 15.4472 5.56192 14.6554 5.78538 13.9305C6.02745 13.2042 6.42781 12.3362 6.98644 11.3265L11.9304 2.46876L15.9805 2.18555L11.5808 9.84398C12.0417 9.67123 12.5306 9.56678 13.0476 9.53063ZM12.0702 12.5391C10.3234 12.6612 8.91391 14.2247 8.91391 15.9518C8.91391 17.6829 10.2599 19.1336 12.0423 19.009C13.8112 18.8853 15.1706 17.2832 15.1706 15.5423C15.1706 13.8482 13.811 12.4173 12.0702 12.5391ZM24.9524 9.19587V21.3079L27.3465 21.1404V16.0365C27.3465 15.1006 27.9833 14.3279 28.9426 14.2608C29.8922 14.1944 30.5387 14.881 30.5387 15.8132V20.9172L32.9329 20.7498V15.1338C32.9329 14.4725 32.7946 13.9062 32.5179 13.4348C31.9344 12.4183 30.8064 11.9705 29.629 12.0528C28.7799 12.1122 27.8594 12.4511 27.3465 13.2073V9.02845L24.9524 9.19587Z" fill="#1A2947"/>
<path d="M36.375 0.0996094L35 4.97461L36.375 5.47461L39.625 0.724609L36.375 0.0996094Z" fill="#E64F96"/>
<path d="M39.375 4.37461L36.75 6.99961L37.5 7.87461L41.25 5.49961L39.375 4.37461Z" fill="#E64F96"/>
</svg>
