<svg width="24" height="24" viewBox="0 0 24 24" fill="none" xmlns="http://www.w3.org/2000/svg">
<path d="M12 22C17.5228 22 22 17.5228 22 12C22 6.47715 17.5228 2 12 2C6.47715 2 2 6.47715 2 12C2 17.5228 6.47715 22 12 22Z" fill="#12183A"/>
<path fill-rule="evenodd" clip-rule="evenodd" d="M12.6001 6.65454L10.4403 14.7149C8.57426 15.1074 6.70566 13.9757 6.20614 12.1114C5.68926 10.1824 6.83404 8.19955 8.76309 7.68266L12.6001 6.65454Z" fill="#18FFC1"/>
<path fill-rule="evenodd" clip-rule="evenodd" d="M13.5592 9.28512C15.4252 8.89256 17.2938 10.0243 17.7934 11.8886C18.3103 13.8176 17.1655 15.8005 15.2364 16.3173L11.3994 17.3455L13.5592 9.28512Z" fill="white"/>
</svg>
