<svg width="90" height="16" viewBox="0 0 90 16" fill="none" xmlns="http://www.w3.org/2000/svg">
<path d="M20.415 8.9249C19.96 8.5449 19.2225 8.2829 18.109 8.1009C17.1365 7.9424 16.791 7.7129 16.791 7.2294C16.791 6.7859 17.191 6.5089 17.8345 6.5089C18.5165 6.5089 18.8695 6.8099 18.9795 7.4989L18.987 7.5624H20.9635L20.956 7.4754C20.744 5.8514 19.654 4.9959 17.795 4.9959C16.007 4.9959 14.815 5.9309 14.815 7.3324C14.815 8.0614 15.0345 8.5999 15.4895 8.9959C15.9445 9.3604 16.697 9.6374 17.7325 9.8199C18.909 10.0334 19.105 10.2714 19.105 10.7304C19.105 11.1979 18.658 11.4989 17.9755 11.4989C17.1755 11.4989 16.6735 11.1189 16.564 10.4374L16.556 10.3739H14.501L14.517 10.4614C14.642 11.2454 15.027 11.8949 15.6225 12.3384C16.219 12.7819 17.0345 13.0119 17.9675 13.0119C18.846 13.0119 19.646 12.7739 20.2185 12.3384C20.791 11.9029 21.105 11.2769 21.105 10.5884C21.097 9.8354 20.8775 9.3134 20.415 8.9249ZM32.1475 5.0829C31.4495 5.0829 30.877 5.3604 30.414 5.9304C30.273 6.0809 30.234 6.1129 30.163 6.1129C30.077 6.1129 30.038 5.9779 30.022 5.9069C29.983 5.6929 29.9435 5.4634 29.936 5.3129L29.928 5.2414H28.4145V12.7584H30.4455V8.7979C30.4455 8.2514 30.524 7.8079 30.6655 7.4829C30.861 7.0474 31.183 6.8254 31.5985 6.8254C32.061 6.8254 32.32 7.1504 32.32 7.7204V7.9904H34.14L34.1475 7.9264C34.163 7.8314 34.163 7.7129 34.163 7.6099C34.171 6.7464 33.9515 6.0649 33.52 5.6299C33.1825 5.2649 32.72 5.0829 32.1475 5.0829ZM38.853 5.0039C37.7705 5.0039 36.783 5.3999 36.061 6.1289C35.3315 6.8654 34.9315 7.8869 34.9315 9.0039C34.9315 10.1364 35.3315 11.1664 36.053 11.8869C36.767 12.5999 37.7785 12.9959 38.8925 12.9959C40.798 12.9959 42.202 11.9979 42.5705 10.3979L42.594 10.3029H40.563L40.547 10.3579C40.351 10.9999 39.747 11.3719 38.892 11.3719C37.8415 11.3719 37.12 10.7224 37.01 9.6769H42.6255L42.641 9.6219C42.6805 9.4474 42.704 9.0594 42.704 8.8059C42.704 7.7129 42.351 6.7704 41.684 6.0889C40.9865 5.3839 40.014 5.0039 38.853 5.0039ZM37.018 8.2514C37.151 7.2534 37.873 6.6114 38.8925 6.6114C39.896 6.6114 40.61 7.2694 40.6885 8.2514H37.018ZM50.327 5.3129C50.327 5.5189 50.288 5.8119 50.2565 6.0179C50.2095 6.2239 50.1465 6.2239 50.1155 6.2239C50.0995 6.2239 50.0215 6.2159 49.841 6.0259C49.237 5.3444 48.445 5.0119 47.4255 5.0119C46.4135 5.0119 45.4805 5.4159 44.7905 6.1519C44.1 6.8889 43.7235 7.8949 43.7235 8.9879C43.7235 10.0809 44.1 11.0869 44.79 11.8239C45.4805 12.5604 46.4135 12.9564 47.4255 12.9564C48.445 12.9564 49.237 12.6234 49.841 11.9424C50.0215 11.7604 50.0995 11.7444 50.1155 11.7444C50.1465 11.7444 50.2095 11.7444 50.2565 11.9504C50.288 12.1089 50.335 12.4179 50.335 12.6554V12.7344H51.88V5.2414H50.335V5.3129H50.327ZM49.896 8.9959C49.896 10.3189 49.0725 11.2059 47.849 11.2059C47.229 11.2059 46.7275 10.9999 46.3585 10.6039C45.982 10.1999 45.794 9.6689 45.794 9.0039C45.794 7.6809 46.6175 6.7939 47.849 6.7939C49.08 6.7859 49.896 7.6729 49.896 8.9959ZM62.4835 5.0039C61.519 5.0039 60.8445 5.3684 60.225 6.2159C60.0915 6.3899 60.013 6.4294 59.966 6.4294C59.911 6.4294 59.856 6.4139 59.7385 6.1999C59.2915 5.3839 58.617 5.0039 57.6055 5.0039C56.7035 5.0039 56.0055 5.3604 55.4015 6.1364C55.2605 6.2869 55.2445 6.2869 55.182 6.2869C55.072 6.2869 55.033 6.1284 55.017 6.0334C54.978 5.7959 54.9385 5.5504 54.931 5.3129V5.2414H53.4095V12.7584H55.4405V9.2734C55.4405 8.5284 55.574 7.9424 55.8485 7.5304C56.1545 7.0714 56.5545 6.8494 57.072 6.8494C57.6055 6.8494 58.2405 7.1109 58.2405 8.3779V12.7664H60.256V9.2814C60.256 8.5364 60.3895 7.9664 60.664 7.5384C60.97 7.0789 61.37 6.8574 61.8875 6.8574C62.4205 6.8574 63.056 7.1189 63.056 8.3859V12.7744H65.103V8.0849C65.095 6.1524 64.115 5.0039 62.4835 5.0039ZM68.648 2.3899H66.6165V12.7504H68.648V2.3899ZM72.2005 5.2414H70.1695V12.7584H72.2005V5.2414ZM78.083 5.0039C77.071 5.0039 76.318 5.3524 75.738 6.1129C75.6435 6.2314 75.5655 6.2869 75.5025 6.2869C75.432 6.2869 75.377 6.2079 75.3455 6.0419C75.3001 5.79796 75.2663 5.55202 75.244 5.3049L75.236 5.2334H73.7145V12.7504H75.7455V9.3129C75.7455 8.5209 75.9025 7.9264 76.224 7.4829C76.5455 7.0474 76.977 6.8334 77.5495 6.8334C78.373 6.8334 78.836 7.3959 78.836 8.4099V12.7424H80.867V8.0849C80.867 7.1109 80.624 6.3504 80.1375 5.8119C79.6595 5.2889 78.9455 5.0039 78.083 5.0039ZM88.6395 6.0889C87.949 5.3839 86.969 5.0119 85.816 5.0119C84.7335 5.0119 83.7455 5.4079 83.024 6.1369C82.2945 6.8734 81.8945 7.8949 81.8945 9.0119C81.8945 10.1444 82.2945 11.1744 83.016 11.8949C83.7295 12.6079 84.7415 13.0039 85.855 13.0039C87.761 13.0039 89.1645 12.0059 89.5335 10.4059L89.557 10.3109H87.5255L87.51 10.3659C87.314 11.0079 86.71 11.3799 85.855 11.3799C84.804 11.3799 84.0825 10.7304 83.973 9.6849H89.5885L89.604 9.6299C89.643 9.4549 89.6665 9.0674 89.6665 8.8139C89.659 7.7129 89.306 6.7704 88.6395 6.0889ZM83.9805 8.2514C84.106 7.2534 84.8355 6.6114 85.855 6.6114C86.859 6.6114 87.5725 7.2694 87.651 8.2514H83.9805ZM26.0695 11.1899C25.285 11.1899 24.9795 10.8414 24.9795 9.9624V6.9524H26.893V5.2414H24.979V3.1739H23.5675L23.5595 3.2454C23.536 3.4829 23.442 4.2754 23.3165 4.6954C23.23 5.0274 23.0655 5.2414 22.501 5.2414H21.599V6.9444H22.979V10.1364C22.979 12.0059 23.795 12.8374 25.63 12.8374C26.085 12.8374 26.626 12.7584 26.9475 12.6554L27.0025 12.6394V11.0314L26.9085 11.0634C26.6364 11.1458 26.3538 11.1884 26.0695 11.1899ZM71.189 4.3859C71.8515 4.3859 72.389 3.8434 72.389 3.1739C72.389 2.5049 71.8515 1.9624 71.189 1.9624C70.5265 1.9624 69.989 2.5049 69.989 3.1739C69.989 3.8439 70.5265 4.3859 71.189 4.3859Z" fill="#CDFF71"/>
<path d="M9.08821 3.18455C9.08821 4.38772 8.11353 5.36911 6.90625 5.36911H4.72429L6.26384 6.91049H8.44581C9.00514 6.91049 9.56448 7.12119 9.98536 7.54812C10.8382 8.40198 10.8382 9.78257 9.98536 10.6364L6.26938 14.3624C5.87619 14.756 5.32793 15 4.72983 15C3.52809 15 2.54786 14.0242 2.54786 12.8154C2.54786 11.6123 3.52255 10.6309 4.72983 10.6309H6.91179L5.36116 9.09505H3.17919C2.61986 9.09505 2.06052 8.88436 1.63964 8.45743C0.786788 7.60356 0.786788 6.22297 1.63964 5.36911L5.36116 1.64317C5.75989 1.24396 6.30261 1 6.90625 1C8.10799 1 9.08821 1.97584 9.08821 3.18455Z" fill="#CDFF71"/>
</svg>
